<?xml version="1.0" encoding="UTF-8"?>
<svg width="132px" height="32px" viewBox="0 0 132 32" version="1.1" xmlns="http://www.w3.org/2000/svg" xmlns:xlink="http://www.w3.org/1999/xlink">
    <!-- Generator: Sketch 48.2 (47327) - http://www.bohemiancoding.com/sketch -->
    <title>acima-logo-white</title>
    <desc>Created with Sketch.</desc>
    <defs/>
    <g id="icons" stroke="none" stroke-width="1" fill="none" fill-rule="evenodd">
        <g id="acima-logo-white" fill-rule="nonzero">
            <path d="M118.841121,5.92592593 C111.562617,5.92592593 105.682243,11.742763 105.682243,18.9426244 C105.682243,26.1424857 111.562617,31.9593228 118.841121,31.9593228 C121.55514,31.9593228 124.063551,31.1457792 126.119626,29.762755 L126.119626,31.4711966 L132,31.4711966 L132,18.9019472 C132,11.7834402 126.119626,5.92592593 118.841121,5.92592593 Z M118.841121,25.979777 C114.934579,25.979777 111.727103,22.8476339 111.727103,18.9426244 C111.727103,15.0376148 114.893458,11.9054718 118.841121,11.9054718 C122.747664,11.9054718 125.95514,15.0376148 125.95514,18.9426244 C125.95514,22.8476339 122.747664,25.979777 118.841121,25.979777 Z M103.009346,16.8274109 L103.009346,32 L96.7588785,32 L96.7588785,16.8274109 C96.7588785,14.4681343 94.8261682,12.5563067 92.4411215,12.5563067 C90.0560748,12.5563067 88.1233645,14.4681343 88.1233645,16.8274109 L88.1233645,32 L81.7906542,32 L81.7906542,16.8274109 C81.7906542,14.4681343 79.8579439,12.5563067 77.4728972,12.5563067 C75.0878505,12.5563067 73.1551402,14.4681343 73.1551402,16.8274109 L73.1551402,32 L66.8224299,32 L66.8224299,16.8274109 C66.8224299,11.0512509 71.5514019,6.37337493 77.3906542,6.37337493 C80.3102804,6.37337493 82.9831776,7.55301323 84.9158879,9.46484082 C86.8485981,7.55301323 89.4803738,6.37337493 92.4411215,6.37337493 C98.2392523,6.37337493 103.009346,11.0512509 103.009346,16.8274109 Z M13.1588785,5.92592593 C5.88037383,5.92592593 0,11.742763 0,18.9426244 C0,26.1424857 5.88037383,31.9593228 13.1588785,31.9593228 C15.8728972,31.9593228 18.3813084,31.1457792 20.4373832,29.762755 L20.4373832,31.4711966 L26.317757,31.4711966 L26.317757,18.9019472 C26.317757,11.7834402 20.4373832,5.92592593 13.1588785,5.92592593 Z M13.1588785,25.979777 C9.25233645,25.979777 6.04485981,22.8476339 6.04485981,18.9426244 C6.04485981,15.0376148 9.25233645,11.946149 13.1588785,11.946149 C17.0654206,11.946149 20.2728972,15.078292 20.2728972,18.9833016 C20.2728972,22.8883111 17.0654206,25.979777 13.1588785,25.979777 Z M41.4504673,32 C34.2130841,32 28.2915888,26.1424857 28.2915888,18.9833016 C28.2915888,11.8241174 34.2130841,5.96660311 41.4504673,5.96660311 C45.6859813,5.96660311 49.6747664,8.00046224 52.1420561,11.3766684 L47.2897196,14.8342289 C45.9327103,12.9630785 43.753271,11.8647946 41.4504673,11.8647946 C37.4616822,11.8647946 34.2542056,15.078292 34.2542056,18.9833016 C34.2542056,22.8883111 37.5028037,26.1018085 41.4504673,26.1018085 C43.9588785,26.1018085 46.2616822,24.8408159 47.5775701,22.7256024 L52.635514,25.8170682 C50.2504673,29.6814006 46.0560748,32 41.4504673,32 Z M61.0654206,32 L55.3084112,32 L55.3084112,10.8071878 L61.0654206,6.6987924 L61.0654206,32 Z" id="Shape" fill="#FFFFFF"/>
            <path d="M60.8954588,1.76893311 L55.3928571,5.92592593 L55.3928571,0 L60.4271523,0 C60.8954588,0 61.2857143,0.442233278 61.2857143,0.972913212 L61.2857143,0.972913212 C61.2466887,1.28247651 61.1296121,1.5920398 60.8954588,1.76893311 Z" id="Shape" fill="#EF6033"/>
        </g>
    </g>
</svg>