<svg height="60" width="60" xmlns="http://www.w3.org/2000/svg"><g fill="none" fill-rule="evenodd"><circle cx="30" cy="30" fill="#f7f7f7" r="30"/><path d="M12 18h33v25H12z" fill="#6bc4e8"/><path d="M16 24h5v5h-5zm0 9h5v5h-5zm10-9h5v5h-5zm0 9h5v5h-5zm10-9h5v5h-5zm0 9h5v5h-5z" fill="#fff"/><path d="M42.585 30.832c-4.313 0-7.823 3.509-7.823 7.823 0 4.313 3.51 7.823 7.823 7.823 4.314 0 7.823-3.51 7.823-7.823 0-4.314-3.51-7.823-7.823-7.823z" fill="#f75200" stroke="#f7f7f7" stroke-width="2"/><path d="M43.289 43.406h-1.407v-.929a2.318 2.318 0 0 1-1.62-2.202h1.407a.917.917 0 0 0 1.833 0c0-.363-.079-.625-1.124-.948-1.837-.473-2.116-1.64-2.116-2.292 0-1.034.684-1.902 1.62-2.202v-.93h1.407v.93c.936.3 1.62 1.168 1.62 2.202h-1.407a.917.917 0 0 0-1.833 0c0 .196 0 .657 1.092.939.665.205 2.148.662 2.148 2.3a2.318 2.318 0 0 1-1.62 2.203v.93z" fill="#fff"/><path d="M16.816 21h3v-6h-3v3.064zm10 0h3v-6h-3v3.064zm10 0h3v-6h-3v3.064z" fill="#f75200"/></g></svg>