<svg height="41" width="41" xmlns="http://www.w3.org/2000/svg" xmlns:xlink="http://www.w3.org/1999/xlink"><defs><path id="a" d="M25.194 13.35H23.31c-1.476 0-1.762.704-1.762 1.735v2.275h3.521l-.459 3.564h-3.06v9.143h-3.671v-9.143h-3.07V17.36h3.07v-2.627c0-3.05 1.858-4.71 4.572-4.71 1.3 0 2.418.096 2.744.14v3.187zM20 0C8.955 0 0 8.974 0 20.045c0 11.07 8.955 20.044 20 20.044 11.046 0 20-8.975 20-20.044C40 8.974 31.046 0 20 0z"/><mask id="b" fill="#fff"><use fill-rule="evenodd" xlink:href="#a"/></mask></defs><g fill="#050044" mask="url(#b)" transform="translate(.5)" fill-rule="evenodd"><path d="M0 0h40v40.089H0z"/></g></svg>