<svg height="47" width="140" xmlns="http://www.w3.org/2000/svg"><g fill="none"><path d="M60.278 24.738c0 6.53-5.238 11.342-11.667 11.342-6.428 0-11.667-4.812-11.667-11.342 0-6.577 5.239-11.343 11.667-11.343 6.429 0 11.667 4.766 11.667 11.343zm-5.107 0c0-4.081-3.036-6.873-6.56-6.873-3.523 0-6.56 2.792-6.56 6.873 0 4.04 3.037 6.873 6.56 6.873 3.524 0 6.56-2.838 6.56-6.873z" fill="#ea4335"/><path d="M84.907 24.738c0 6.53-5.238 11.342-11.666 11.342-6.429 0-11.667-4.812-11.667-11.342 0-6.572 5.238-11.343 11.667-11.343 6.428 0 11.666 4.766 11.666 11.343zm-5.107 0c0-4.081-3.036-6.873-6.56-6.873-3.523 0-6.559 2.792-6.559 6.873 0 4.04 3.036 6.873 6.56 6.873 3.523 0 6.56-2.838 6.56-6.873z" fill="#fbbc05"/><path d="M108.889 14.085v20.493c0 8.43-5.007 11.873-10.925 11.873-5.572 0-8.925-3.7-10.19-6.727l4.395-1.816c.783 1.857 2.7 4.05 5.79 4.05 3.788 0 6.136-2.321 6.136-6.69v-1.642h-.176c-1.13 1.384-3.307 2.594-6.054 2.594-5.747 0-11.013-4.972-11.013-11.369 0-6.443 5.266-11.456 11.013-11.456 2.742 0 4.919 1.21 6.054 2.553h.176V14.09h4.794zm-4.437 10.766c0-4.02-2.7-6.958-6.136-6.958-3.483 0-6.4 2.939-6.4 6.958 0 3.978 2.917 6.876 6.4 6.876 3.436 0 6.136-2.898 6.136-6.876z" fill="#4285f4"/><path d="M116.667 1.728v33.704h-5.186V1.728z" fill="#34a853"/><path d="m135.828 28.476 3.952 2.577c-1.275 1.846-4.35 5.027-9.661 5.027-6.588 0-11.508-4.98-11.508-11.342 0-6.746 4.962-11.343 10.938-11.343 6.017 0 8.96 4.684 9.923 7.216l.528 1.288-15.502 6.28c1.187 2.276 3.033 3.437 5.62 3.437 2.594 0 4.392-1.248 5.71-3.14zm-12.166-4.081 10.362-4.209c-.57-1.416-2.285-2.403-4.303-2.403-2.588 0-6.19 2.235-6.06 6.612z" fill="#ea4335"/><path d="M18.217 21.62v-4.87h16.538c.162.849.245 1.853.245 2.94 0 3.654-1.007 8.172-4.25 11.39-3.156 3.261-7.187 5-12.528 5C8.324 36.08 0 28.08 0 18.256 0 8.433 8.324.432 18.222.432c5.476 0 9.377 2.132 12.308 4.912L27.068 8.78c-2.102-1.956-4.95-3.478-8.85-3.478-7.23 0-12.883 5.781-12.883 12.954S10.989 31.21 18.217 31.21c4.689 0 7.359-1.868 9.07-3.566 1.387-1.376 2.3-3.343 2.66-6.029z" fill="#4285f4"/></g></svg>