<svg height="97" width="167" xmlns="http://www.w3.org/2000/svg"><mask id="a" fill="#fff"><path d="M.606.164h70.643v62.75H.606z" fill-rule="evenodd"/></mask><g fill="none" fill-rule="evenodd"><path d="m0 33.558 94.635 62.75.28-62.75z" fill="#6bc4e8"/><path d="M94.636 0v34.137l65.269.317z" fill="#0033a1"/><path d="M66.594 18.894.606 62.914V.164H61.92c5.665.057 9.284 4.642 9.33 10.306a11.875 11.875 0 0 1-4.656 8.424" fill="#f75200" mask="url(#a)" transform="translate(94.03 33.394)"/><path d="M113.838 96.741h-.694V92.39h-1.591v-.611h3.875v.611h-1.59zm4.814-1.149h.015l1.463-3.813h1.08v4.962h-.694v-4.148h-.014l-1.647 4.148h-.441l-1.64-4.148h-.014v4.148h-.673v-4.962h1.079z" fill="#6bc4e8"/></g></svg>