<svg height="41" width="41" xmlns="http://www.w3.org/2000/svg" xmlns:xlink="http://www.w3.org/1999/xlink"><defs><path id="a" d="M20 0c11.046 0 20 8.974 20 20.045 0 11.07-8.954 20.044-20 20.044S0 31.115 0 20.045 8.954 0 20 0zm.318 8.018h-1.477c-2.223.004-2.679.021-3.788.073-1.278.058-2.15.261-2.913.558-.79.307-1.458.72-2.126 1.387a5.886 5.886 0 0 0-1.384 2.13c-.297.765-.5 1.64-.557 2.92-.012.257-.022.478-.03.695l-.009.216a89.83 89.83 0 0 0-.033 2.885v2.325c.002 1.543.011 2.236.033 2.885l.008.216.03.695c.059 1.28.261 2.155.558 2.92.306.79.716 1.462 1.384 2.13s1.337 1.079 2.126 1.387c.764.297 1.635.5 2.913.558 1.195.055 1.63.071 4.333.073h1.23c1.833-.001 2.623-.009 3.315-.03l.433-.017c.182-.007.37-.016.584-.026 1.278-.058 2.15-.26 2.913-.558a5.92 5.92 0 0 0 2.126-1.387 5.899 5.899 0 0 0 1.384-2.13c.297-.765.5-1.64.557-2.92.05-1.112.068-1.568.071-3.796l.001-.845v-1.48c-.004-2.228-.021-2.684-.072-3.796-.058-1.28-.26-2.155-.557-2.92a5.92 5.92 0 0 0-1.384-2.13 5.877 5.877 0 0 0-2.125-1.387c-.764-.297-1.636-.501-2.913-.558-1.109-.05-1.564-.069-3.787-.072l-.546-.001zm3.532 2.196.424.015.576.025c1.17.054 1.805.25 2.229.414.56.218.96.479 1.38.9.42.42.68.821.898 1.383.164.423.36 1.06.412 2.233.049 1.058.065 1.498.07 3.474v2.774c-.005 1.976-.021 2.416-.07 3.473-.053 1.172-.249 1.81-.412 2.233a3.727 3.727 0 0 1-.898 1.383c-.42.42-.82.68-1.38.9-.423.164-1.059.36-2.229.413-1.096.05-1.528.066-3.71.07h-2.28c-2.181-.004-2.612-.02-3.708-.07-1.17-.053-1.806-.249-2.228-.414a3.717 3.717 0 0 1-1.38-.9c-.42-.42-.681-.82-.898-1.382-.165-.423-.36-1.06-.413-2.233-.05-1.099-.066-1.531-.07-3.718v-2.285c.004-2.186.02-2.618.07-3.718.053-1.172.25-1.808.413-2.233.218-.562.478-.962.897-1.383.42-.422.82-.682 1.38-.9.423-.165 1.06-.36 2.23-.414l.575-.025.212-.008c.703-.026 1.397-.034 3.18-.036h1.76a97.33 97.33 0 0 1 2.97.029zM20 13.869c-3.403 0-6.162 2.765-6.162 6.176 0 3.41 2.76 6.175 6.162 6.175 3.404 0 6.163-2.765 6.163-6.175 0-3.411-2.76-6.176-6.163-6.176zm0 2.166c2.21 0 4.001 1.796 4.001 4.01s-1.791 4.009-4 4.009c-2.21 0-4-1.795-4-4.01a4.005 4.005 0 0 1 4-4.009zm6.407-3.854c-.795 0-1.44.646-1.44 1.443s.644 1.444 1.439 1.444 1.44-.646 1.44-1.443-.644-1.443-1.439-1.444z"/><mask id="b" fill="#fff"><use fill-rule="evenodd" xlink:href="#a"/></mask></defs><g fill="#050044" mask="url(#b)" transform="translate(.757)" fill-rule="evenodd"><path d="M0 0h40v40.089H0z"/></g></svg>