<svg height="60" width="60" xmlns="http://www.w3.org/2000/svg"><mask id="a" fill="#fff"><path d="M0 .182h30V26.1H0z" fill-rule="evenodd"/></mask><mask id="b" fill="#fff"><path d="M.022.275h19.156v16.053H.022z" fill-rule="evenodd"/></mask><g fill="none" fill-rule="evenodd"><circle cx="30" cy="30" fill="#f7f7f7" r="30"/><path d="m12.135 22.793 2.101-7.052-3.576.248 6.154-8.898-2.101 7.051 3.576-.248zm17.855 1.825L27.044 1.333A1.314 1.314 0 0 0 25.739.182h-2.77c.084.77.11 1.398.117 1.802a2.474 2.474 0 1 1-1.969.002c-.008-.392-.04-1.03-.133-1.804H9.016a18.736 18.736 0 0 0-.133 1.804 2.476 2.476 0 0 1 1.489 2.267c0 1.365-1.11 2.474-2.475 2.474s-2.475-1.11-2.475-2.474c0-1.016.616-1.888 1.493-2.27.006-.403.032-1.03.117-1.801h-2.77c-.664 0-1.224.493-1.307 1.151L.01 24.618A1.317 1.317 0 0 0 1.317 26.1h27.366c.793 0 1.406-.695 1.306-1.482z" fill="#6bc4e8" mask="url(#a)" transform="translate(15 20.626)"/><path d="M.022 13.853c0 1.365 1.11 2.475 2.475 2.475s2.475-1.11 2.475-2.475a2.475 2.475 0 0 0-1.49-2.267c.01-.392.041-1.031.134-1.804.225-1.867.818-4.477 2.39-6.09.951-.976 2.127-1.451 3.594-1.451s2.643.475 3.594 1.452c1.572 1.612 2.165 4.222 2.39 6.089.093.773.125 1.412.133 1.804a2.477 2.477 0 0 0-1.488 2.267 2.477 2.477 0 0 0 2.474 2.475 2.477 2.477 0 0 0 2.475-2.475 2.478 2.478 0 0 0-1.492-2.27 19.644 19.644 0 0 0-.117-1.801c-.237-2.161-.934-5.372-2.961-7.457C13.285.965 11.6.275 9.6.275s-3.685.69-5.008 2.05C2.566 4.41 1.868 7.621 1.632 9.782a19.62 19.62 0 0 0-.117 1.802 2.475 2.475 0 0 0-1.493 2.269" fill="#f75200" mask="url(#b)" transform="translate(20.4 11.025)"/><path d="m31.814 27.716-6.154 8.899 3.576-.248-2.101 7.051 6.154-8.898-3.576.248z" fill="#fff"/></g></svg>