<svg height="41" width="41" xmlns="http://www.w3.org/2000/svg" xmlns:xlink="http://www.w3.org/1999/xlink"><defs><path id="a" d="M30 30.048h-4.144v-6.5c0-1.55-.027-3.542-2.154-3.542-2.156 0-2.485 1.688-2.485 3.432v6.61h-4.14V16.683h3.973v1.828h.058c.552-1.05 1.904-2.16 3.92-2.16 4.197 0 4.972 2.768 4.972 6.367zm-17.595-15.19A2.406 2.406 0 0 1 10 12.448a2.406 2.406 0 0 1 2.405-2.408 2.407 2.407 0 0 1 2.401 2.409 2.406 2.406 0 0 1-2.401 2.409zm2.072 15.19H10.33V16.683h4.148v13.365zM20 0C8.954 0 0 8.974 0 20.045c0 11.07 8.954 20.044 20 20.044s20-8.975 20-20.044C40 8.974 31.046 0 20 0z"/><mask id="b" fill="#fff"><use fill-rule="evenodd" xlink:href="#a"/></mask></defs><g fill="#050044" mask="url(#b)" transform="translate(.757)" fill-rule="evenodd"><path d="M0 0h40v40.089H0z"/></g></svg>