<svg xmlns="http://www.w3.org/2000/svg" xmlns:xlink="http://www.w3.org/1999/xlink" width="133" height="60"><defs><path id="a" d="M0 0h26.645v26.577H0z"/><path id="c" d="M0 0h5.757v3.049H0z"/><path id="e" d="M0 0h9.18v13.845H0z"/></defs><g fill="none" fill-rule="evenodd"><g transform="translate(0 8.572)"><mask id="b" fill="#fff"><use xlink:href="#a"/></mask><path fill="#6BC4E8" d="M13.4 20.472c-3.954 0-7.16-3.217-7.16-7.184 0-3.969 3.206-7.185 7.16-7.185 3.955 0 7.16 3.216 7.16 7.185v.001c0 3.968-3.205 7.183-7.16 7.183M13.4 0C6.088-.086.089 5.793 0 13.131c-.086 7.338 5.772 13.357 13.086 13.445h.315a12.96 12.96 0 0 0 7.324-2.248v1.886h5.92V13.29C26.639 5.953 20.713.006 13.4.001" mask="url(#b)"/></g><path fill="#6BC4E8" d="M119.757 29.044c-3.954 0-7.16-3.217-7.16-7.185 0-3.968 3.206-7.184 7.16-7.184s7.16 3.216 7.16 7.184v.002c0 3.967-3.207 7.183-7.16 7.183m0-20.471c-7.313.087-13.172 6.107-13.085 13.445.085 7.216 5.894 13.044 13.085 13.13a12.945 12.945 0 0 0 7.325-2.249v1.887H133V21.86c-.005-7.336-5.931-13.283-13.243-13.288M41.915 35.19c-7.32.004-13.256-5.947-13.259-13.29-.003-7.345 5.927-13.301 13.246-13.304 4.27-.003 8.28 2.06 10.772 5.541l-4.883 3.53a7.216 7.216 0 0 0-10.097-1.644c-3.241 2.344-3.974 6.88-1.638 10.13a7.217 7.217 0 0 0 12.024-.434l5.09 3.156a13.194 13.194 0 0 1-11.255 6.315m19.698-.404h-5.794V13.555l5.794-4.194zm42.17-15.084v15.084h-6.29V19.702a4.353 4.353 0 0 0-4.348-4.359c-2.398 0-4.342 1.952-4.344 4.359v15.084H82.43V19.702a4.352 4.352 0 0 0-4.343-4.362 4.353 4.353 0 0 0-4.348 4.358v15.088h-6.29V19.702C67.455 13.8 72.23 9.02 78.112 9.029a10.635 10.635 0 0 1 7.544 3.157 10.614 10.614 0 0 1 7.575-3.156c5.794 0 10.552 4.776 10.552 10.672M48.009 2.966l8.314 5.554V2.966z"/><g transform="translate(56.226)"><mask id="d" fill="#fff"><use xlink:href="#c"/></mask><path fill="#9FE6FE" d="m0 0 5.757 3.049L.05 3.021 0 2.936z" mask="url(#d)"/></g><path fill="#F75200" d="m62.046 4.623-5.82 3.895V2.965h5.323a.92.92 0 0 1 .908.913 1.054 1.054 0 0 1-.411.745M46.373 55.577h-6.594a.517.517 0 0 1-.517-.518V42.533c0-.286.231-.518.517-.518h.387c.285 0 .516.232.516.518v11.654h5.69c.285 0 .517.231.517.518v.354a.517.517 0 0 1-.516.518m2.377-5.529h5.702a3.463 3.463 0 0 0-.195-.745 2.967 2.967 0 0 0-.59-.957 2.503 2.503 0 0 0-.882-.602c-.758-.313-1.836-.285-2.486.093-.372.218-.68.487-.912.8-.24.324-.42.665-.53 1.014a4.26 4.26 0 0 0-.107.397m3.053 5.776c-.668 0-1.29-.124-1.848-.37a4.358 4.358 0 0 1-1.45-1.034c-.405-.44-.72-.97-.935-1.575a5.76 5.76 0 0 1-.322-1.943c0-.676.113-1.31.336-1.886a4.752 4.752 0 0 1 .923-1.51 4.195 4.195 0 0 1 1.401-.998c1.158-.506 2.608-.444 3.61.033.534.254.986.596 1.345 1.015.355.415.623.894.797 1.423a5.07 5.07 0 0 1 .255 1.586v.337c0 .286-.23.518-.516.518h-6.7c.032.269.088.536.168.799.127.42.323.8.582 1.13.256.328.571.586.968.79.772.397 2.017.398 2.843-.028a3.26 3.26 0 0 0 1.11-.956.515.515 0 0 1 .751-.078l.283.247a.52.52 0 0 1 .07.707 4.648 4.648 0 0 1-1.578 1.331c-.605.307-1.31.462-2.093.462m10.244-4.687c-.429 0-.885.025-1.355.077a4.551 4.551 0 0 0-1.221.292 2.06 2.06 0 0 0-.815.565c-.183.212-.271.506-.271.9 0 .283.05.514.15.686.108.187.24.33.404.44.18.12.382.21.6.265.814.21 1.455.07 1.904-.18.334-.187.592-.416.788-.7.202-.292.344-.617.423-.97.086-.38.129-.755.129-1.115v-.26h-.736zm-1.851 4.688c-.375 0-.753-.054-1.122-.162a3.332 3.332 0 0 1-1.033-.503 2.673 2.673 0 0 1-.777-.899c-.2-.37-.3-.803-.3-1.29 0-.701.193-1.284.573-1.732.35-.413.79-.737 1.307-.963a5.556 5.556 0 0 1 1.584-.42c.528-.061 1.02-.092 1.46-.092h.895v-.136c0-.747-.184-1.284-.545-1.599-.388-.337-.895-.502-1.548-.502-.41 0-.797.076-1.148.224a3.524 3.524 0 0 0-.977.618.515.515 0 0 1-.765-.087l-.212-.301a.523.523 0 0 1 .081-.69c.424-.37.91-.656 1.445-.849.53-.19 1.06-.286 1.576-.286 1.054 0 1.908.284 2.538.846.647.58.975 1.467.975 2.643v3.574c0 .293.014.606.043.937.028.335.059.609.092.823a.518.518 0 0 1-.51.598h-.37a.515.515 0 0 1-.506-.415 3.513 3.513 0 0 1-.055-.415 3.144 3.144 0 0 1-.577.46c-.656.41-1.37.618-2.124.618zm8.816-.035a4.302 4.302 0 0 1-1.851-.395 3.59 3.59 0 0 1-1.41-1.186.524.524 0 0 1 .136-.731l.317-.212a.515.515 0 0 1 .706.13c.49.687 1.183 1.022 2.12 1.022.204 0 .416-.035.63-.102a1.8 1.8 0 0 0 .565-.289c.16-.122.287-.271.388-.455a1.22 1.22 0 0 0 .139-.6c0-.265-.053-.472-.157-.618a1.4 1.4 0 0 0-.473-.414 3.662 3.662 0 0 0-.748-.301 47.736 47.736 0 0 0-.862-.236 9.547 9.547 0 0 1-.884-.292 3.002 3.002 0 0 1-.821-.472 2.21 2.21 0 0 1-.598-.772c-.144-.304-.218-.676-.218-1.106 0-.44.093-.832.275-1.168a2.45 2.45 0 0 1 .715-.818c.283-.205.605-.362.96-.466.345-.102.7-.154 1.053-.154 1.279 0 2.257.473 2.91 1.406a.516.516 0 0 1 .08.409.515.515 0 0 1-.245.337l-.334.195a.517.517 0 0 1-.67-.133c-.22-.29-.47-.505-.738-.64-.389-.194-.932-.284-1.589-.127-.19.044-.358.117-.514.22a1.153 1.153 0 0 0-.354.376c-.086.142-.128.32-.128.545 0 .333.059.513.108.606a.82.82 0 0 0 .291.321c.16.104.362.195.596.268.273.086.572.169.901.247.345.09.67.192.986.311.338.126.646.287.914.48.292.21.527.476.7.791.175.324.265.718.265 1.17 0 .443-.089.85-.264 1.21-.172.353-.41.658-.707.905a3.12 3.12 0 0 1-1.004.552 3.716 3.716 0 0 1-1.186.186m5.184-11.412a.896.896 0 0 1-.647-.275.965.965 0 0 1-.275-.703c0-.267.095-.504.275-.684a.907.907 0 0 1 1.294 0c.18.18.274.417.274.684 0 .362-.16.588-.295.715a.91.91 0 0 1-.626.263m.193 11.199h-.387a.517.517 0 0 1-.517-.518v-8.138c0-.287.232-.518.517-.518h.387c.286 0 .517.231.517.518v8.138a.517.517 0 0 1-.517.518m9.434 0h-.388a.516.516 0 0 1-.516-.518v-4.883c0-.297-.033-.622-.097-.966a2.38 2.38 0 0 0-.326-.844 1.939 1.939 0 0 0-.623-.608c-.465-.293-1.342-.32-2.02-.004a2.448 2.448 0 0 0-.847.651 3.437 3.437 0 0 0-.593 1.084c-.151.433-.227.938-.227 1.5v4.07a.517.517 0 0 1-.517.518h-.388a.516.516 0 0 1-.516-.518v-6.086c0-.125-.003-.28-.009-.462l-.017-.574a16.546 16.546 0 0 0-.06-.966.515.515 0 0 1 .514-.568h.387c.267 0 .489.202.516.468.011.127.021.285.027.475.165-.172.342-.327.53-.463a3.802 3.802 0 0 1 2.243-.728c.646 0 1.202.121 1.653.362.449.239.814.562 1.084.963.258.38.445.816.552 1.289.103.45.154.912.154 1.372v4.918c0 .287-.23.518-.516.518"/><g transform="translate(85.686 46.155)"><mask id="f" fill="#fff"><use xlink:href="#e"/></mask><path fill="#F75200" d="M4.572 1.372c-.484 0-.922.093-1.302.277-.385.186-.72.439-.99.75a3.433 3.433 0 0 0-.634 1.105c-.15.426-.225.88-.225 1.349s.075.923.225 1.348c.148.42.362.792.636 1.107.268.31.6.557.983.737.743.35 1.798.367 2.578 0a3.132 3.132 0 0 0 1.008-.744c.286-.317.514-.692.678-1.115.164-.422.247-.877.247-1.35 0-.476-.083-.93-.247-1.352a3.51 3.51 0 0 0-.675-1.103 3.251 3.251 0 0 0-1.011-.74 2.987 2.987 0 0 0-1.271-.269m.087 12.473c-.83 0-1.588-.149-2.253-.442a4.883 4.883 0 0 1-1.713-1.256.518.518 0 0 1 .022-.707l.264-.266c.1-.102.238-.15.381-.152a.517.517 0 0 1 .372.175c.391.444.84.77 1.33.968 1.069.431 2.368.394 3.113-.018.396-.217.699-.496.924-.85.235-.368.404-.8.503-1.286a8.077 8.077 0 0 0 .157-1.603v-.05c-.228.228-.475.43-.737.601-.36.233-.754.411-1.171.531a4.692 4.692 0 0 1-3.115-.19 4.386 4.386 0 0 1-1.459-1.023 4.637 4.637 0 0 1-.943-1.533A5.273 5.273 0 0 1 0 4.853c0-.673.112-1.313.334-1.9.221-.59.538-1.11.94-1.548C1.68.965 2.172.617 2.736.37A4.56 4.56 0 0 1 4.572 0c.871 0 1.685.235 2.418.699.28.177.536.388.769.63V.766c0-.286.23-.518.516-.518h.387c.285 0 .518.232.518.518v7.678a8.82 8.82 0 0 1-.217 1.974 4.98 4.98 0 0 1-.75 1.737c-.36.517-.838.931-1.421 1.235-.584.302-1.3.455-2.133.455" mask="url(#f)"/></g><path fill="#F75200" d="M96.638 46.773h-.725v-.369h1.87v.369h-.724v2.003h-.421zm1.419-.37h.658l.614 1.686h.01l.609-1.686h.661v2.373h-.418V46.87h-.006l-.719 1.906h-.293l-.709-1.906h-.007v1.906h-.4z"/></g></svg>