<svg width="68" height="42" xmlns="http://www.w3.org/2000/svg"><g fill="none" fill-rule="evenodd"><path fill="#FF5F00" d="M24.806 37.507h18.388V4.49H24.806z"/><path d="M25.974 20.998C25.974 14.3 29.112 8.335 34 4.49A20.933 20.933 0 0 0 21.013 0C9.408 0 0 9.401 0 20.998c0 11.597 9.408 20.998 21.013 20.998 4.902 0 9.412-1.677 12.987-4.49-4.888-3.844-8.026-9.81-8.026-16.508" fill="#EB001B"/><path d="M68 20.998c0 11.597-9.408 20.998-21.013 20.998A20.93 20.93 0 0 1 34 37.506c4.888-3.844 8.026-9.81 8.026-16.508C42.026 14.3 38.888 8.335 34 4.49A20.93 20.93 0 0 1 46.987 0C58.592 0 68 9.401 68 20.998m-.656 13.04v-.84h-.213l-.245.577-.245-.577h-.213v.84h.15v-.635l.23.547h.156l.23-.548v.636h.15zm-1.35 0v-.697h.273v-.143h-.694v.143h.273v.697h.149z" fill="#F79E1B"/></g></svg>