<svg height="60" width="60" xmlns="http://www.w3.org/2000/svg"><mask id="a" fill="#fff"><path d="M0 0h40v30.339H0z" fill-rule="evenodd"/></mask><g fill="none" fill-rule="evenodd"><circle cx="30" cy="30" fill="#f7f7f7" r="30"/><path d="M1.659 27.226h10.196v-1.512H1.66v1.512zm0-3.12h15.882v-1.511H1.659v1.512zm28.335-4.094c-4.038 0-7.517-2.41-9.096-5.862H1.71v-4.144h18.277a9.95 9.95 0 0 1 .445-2.949H2.967A2.972 2.972 0 0 0 0 10.025v17.347a2.97 2.97 0 0 0 2.967 2.967h26.886a2.97 2.97 0 0 0 2.967-2.967V19.6a9.955 9.955 0 0 1-2.826.413z" fill="#6bc4e8" mask="url(#a)" transform="translate(12 13)"/><path d="m24.75 9.66 1.256-1.085 2.796 3.238 5.193-5.043 1.155 1.19-6.454 6.269-3.946-4.57zm5.244 9.246c4.907 0 8.9-3.993 8.9-8.9 0-4.908-3.993-8.9-8.9-8.9s-8.9 3.992-8.9 8.9c0 4.907 3.993 8.9 8.9 8.9z" fill="#f75200" mask="url(#a)" transform="translate(12 13)"/><g fill="#fff"><path d="M21.094 10.006c0-4.908 3.993-8.9 8.9-8.9s8.9 3.992 8.9 8.9c0 4.907-3.993 8.9-8.9 8.9s-8.9-3.993-8.9-8.9m18.906 0C40 4.49 35.511 0 29.994 0c-4.49 0-8.3 2.975-9.561 7.057a9.951 9.951 0 0 0-.445 2.95H1.711v4.143h19.187c1.58 3.452 5.058 5.862 9.096 5.862.982 0 1.929-.148 2.826-.413C36.964 18.375 40 14.54 40 10.006" mask="url(#a)" transform="translate(12 13)"/><path d="m28.696 14.229 6.454-6.268-1.155-1.191-5.193 5.043-2.796-3.238L24.75 9.66z" mask="url(#a)" transform="translate(12 13)"/></g><path d="M13 34h20v7H13z" fill="#6bc4e8"/></g></svg>