<svg height="60" width="60" xmlns="http://www.w3.org/2000/svg"><g fill="none" fill-rule="evenodd"><circle cx="30" cy="30" fill="#f7f7f7" r="30"/><path d="M25.409 29.27h8.395v-3.132h-8.395zm0 21.379h8.395V39.696h-8.395zM29.607 10l-4.198 3.48v2.21h8.395v-2.21z" fill="#6bc4e8"/><path d="m18.299 31.749-3.948 2.735 3.948 2.734h17.037l-1.8-2.734 1.8-2.735z" fill="#fff"/><path d="M33.804 29.27H17.525L10 34.483l7.525 5.213h22.409l-3.43-5.213 3.43-5.213zM14.35 34.483l3.95-2.733h17.037l-1.8 2.734 1.8 2.735H18.299l-3.948-2.735z" fill="#f75200"/><path d="m40.466 23.66 4.655-2.746-4.655-2.746H20.281l2.378 2.746-2.378 2.746z" fill="#fff"/><path d="M33.804 15.69H14.857l4.523 5.224-4.523 5.224h26.285L50 20.914l-8.858-5.224zm-11.146 5.224-2.377-2.746h20.185l4.655 2.746-4.655 2.746H20.28l2.377-2.746z" fill="#f75200"/></g></svg>