<svg height="55" width="220" xmlns="http://www.w3.org/2000/svg"><mask id="a" fill="#fff"><path d="M.144.069h161.613v34.766H.144z" fill-rule="evenodd"/></mask><g fill="none" fill-rule="evenodd"><path d="M150.117 7.637h3.304V1.683h4.38v5.954h3.956v3.265H157.8v10.603c0 .461.02.858.058 1.19.038.334.127.615.269.846.14.23.351.403.634.519.28.115.665.172 1.152.172.307 0 .615-.006.922-.019a4.51 4.51 0 0 0 .922-.134v3.38c-.487.051-.96.103-1.422.154-.46.051-.935.077-1.42.077-1.153 0-2.082-.11-2.786-.327-.705-.217-1.255-.537-1.652-.96s-.666-.954-.807-1.594c-.14-.64-.224-1.37-.25-2.19V10.902h-3.303zm-11.294 16.941c.973 0 1.819-.204 2.536-.614a5.356 5.356 0 0 0 1.767-1.614c.46-.666.8-1.415 1.018-2.247a10.084 10.084 0 0 0 0-5.09 6.816 6.816 0 0 0-1.018-2.248c-.461-.653-1.05-1.184-1.767-1.594s-1.563-.615-2.536-.615-1.818.206-2.535.615a5.43 5.43 0 0 0-1.767 1.594 6.796 6.796 0 0 0-1.018 2.248 10.04 10.04 0 0 0 0 5.09 7.03 7.03 0 0 0 1.018 2.247c.46.666 1.05 1.204 1.767 1.614s1.562.614 2.535.614zm0 3.458c-1.588 0-3.003-.263-4.245-.788-1.242-.524-2.292-1.248-3.15-2.17s-1.511-2.023-1.959-3.304c-.448-1.28-.672-2.69-.672-4.226 0-1.51.224-2.906.672-4.187.448-1.28 1.1-2.382 1.96-3.304.857-.922 1.907-1.645 3.15-2.17 1.241-.525 2.656-.788 4.244-.788s3.003.263 4.245.788 2.292 1.248 3.15 2.17 1.511 2.024 1.96 3.304c.447 1.28.672 2.676.672 4.187 0 1.537-.225 2.946-.672 4.226-.449 1.28-1.102 2.382-1.96 3.304s-1.908 1.646-3.15 2.17c-1.242.525-2.657.788-4.245.788zm-17.786-.538h4.38V.069h-4.38zm-8.293 0h4.38V7.638h-4.38zm0-23.28h4.38V.07h-4.38v4.15zm-7.722 13.369a9.91 9.91 0 0 0-.345-2.613 7.087 7.087 0 0 0-1.038-2.247 5.35 5.35 0 0 0-1.728-1.575c-.692-.397-1.486-.596-2.382-.596-1.844 0-3.233.641-4.168 1.921-.935 1.281-1.402 2.984-1.402 5.11 0 .998.12 1.927.365 2.785.243.858.608 1.594 1.094 2.208a5.468 5.468 0 0 0 1.748 1.46c.679.36 1.466.538 2.363.538.999 0 1.844-.204 2.535-.614a5.358 5.358 0 0 0 1.71-1.594 6.473 6.473 0 0 0 .96-2.229 11.32 11.32 0 0 0 .288-2.554zm-15.289-9.95h4.149v2.689h.077c.614-1.152 1.472-1.978 2.573-2.478s2.292-.749 3.573-.749c1.562 0 2.926.276 4.092.826 1.164.551 2.132 1.306 2.9 2.267.768.96 1.344 2.08 1.729 3.36.384 1.282.576 2.652.576 4.111 0 1.332-.173 2.626-.519 3.88-.346 1.255-.87 2.363-1.575 3.323s-1.594 1.73-2.67 2.305c-1.075.577-2.343.865-3.803.865-.64 0-1.281-.058-1.92-.173-.641-.115-1.256-.301-1.845-.557s-1.133-.582-1.632-.98a5.42 5.42 0 0 1-1.249-1.402h-.077v9.911h-4.379zm-14.713 0h3.304V1.683h4.38v5.954h3.956v3.265h-3.957v10.603c0 .461.02.858.058 1.19.038.334.128.615.269.846.14.23.352.403.634.519.281.115.665.172 1.152.172.307 0 .615-.006.922-.019a4.51 4.51 0 0 0 .922-.134v3.38c-.487.051-.96.103-1.421.154s-.936.077-1.422.077c-1.152 0-2.08-.11-2.785-.327s-1.255-.537-1.652-.96-.666-.954-.807-1.594c-.14-.64-.224-1.37-.25-2.19V10.902H75.02zM60.576 21.121c.128 1.28.615 2.177 1.46 2.689s1.856.768 3.035.768c.409 0 .877-.031 1.402-.096a6.08 6.08 0 0 0 1.479-.365c.46-.179.838-.442 1.133-.787.294-.346.429-.8.403-1.364-.026-.563-.23-1.024-.614-1.383-.384-.358-.878-.647-1.48-.864a14.147 14.147 0 0 0-2.055-.557c-.768-.154-1.55-.32-2.343-.5a21.965 21.965 0 0 1-2.363-.653 7.591 7.591 0 0 1-2.035-1.037 4.77 4.77 0 0 1-1.441-1.671c-.359-.678-.538-1.518-.538-2.516 0-1.076.262-1.979.788-2.709a6.03 6.03 0 0 1 1.997-1.767 8.72 8.72 0 0 1 2.69-.94c.985-.18 1.926-.27 2.823-.27 1.024 0 2.003.11 2.939.327.934.218 1.78.57 2.535 1.056a6.211 6.211 0 0 1 1.882 1.902c.5.781.813 1.722.942 2.823h-4.572c-.205-1.05-.685-1.754-1.44-2.113-.756-.358-1.62-.538-2.593-.538-.308 0-.673.026-1.095.077-.423.052-.82.148-1.191.288a2.504 2.504 0 0 0-.941.615c-.257.27-.385.621-.385 1.057 0 .537.186.973.558 1.306.37.333.857.608 1.46.826.6.218 1.286.403 2.055.557.768.153 1.561.32 2.381.5.794.178 1.575.396 2.344.652a7.569 7.569 0 0 1 2.055 1.037 5.073 5.073 0 0 1 1.46 1.652c.37.666.557 1.486.557 2.459 0 1.178-.27 2.177-.807 2.996-.538.82-1.236 1.486-2.094 1.998s-1.812.883-2.862 1.114a14.51 14.51 0 0 1-3.111.346c-1.255 0-2.414-.141-3.477-.423s-1.985-.71-2.766-1.287c-.781-.576-1.396-1.293-1.844-2.151s-.685-1.876-.71-3.054h4.379zm-7.452 6.377H48.82v-2.766h-.077c-.537.999-1.338 1.8-2.4 2.4-1.064.602-2.146.904-3.247.904-2.612 0-4.501-.647-5.666-1.94-1.166-1.293-1.748-3.247-1.748-5.859v-12.6h4.38v12.178c0 1.742.332 2.971.998 3.688s1.6 1.075 2.804 1.075c.922 0 1.69-.14 2.305-.422s1.115-.66 1.499-1.133c.384-.474.659-1.044.826-1.71.166-.666.25-1.383.25-2.151V7.637h4.379v19.86zM21.387 7.638h4.11v3.84h.077a4.424 4.424 0 0 1 .75-1.574c.37-.512.819-.98 1.344-1.403a6.808 6.808 0 0 1 1.748-1.018 5.252 5.252 0 0 1 1.959-.384c.512 0 .864.013 1.056.039.193.026.39.051.596.076v4.226a20.483 20.483 0 0 0-.941-.134 7.777 7.777 0 0 0-.941-.058c-.744 0-1.441.148-2.094.442-.653.295-1.224.73-1.71 1.306s-.87 1.287-1.152 2.132-.423 1.819-.423 2.92v9.45h-4.379zM.144.068h22.204v4.149h-8.72v23.28H8.825V4.218H.144V.069z" fill="#191919" mask="url(#a)" transform="translate(57.478 19.009)"/><path d="M20.058 19.073 0 19.069l16.228 11.794-6.197 19.076 16.226-11.788 16.221 11.788-6.196-19.072 16.227-11.789-20.058-.003L26.254 0z" fill="#00b67a"/><path d="m37.687 35.191-1.405-4.324-10.025 7.284z" fill="#005128"/></g></svg>