<svg xmlns="http://www.w3.org/2000/svg" xmlns:xlink="http://www.w3.org/1999/xlink" width="41" height="41"><defs><path id="a" d="M27.953 15.957c.007.176.012.353.012.532 0 5.433-4.128 11.7-11.675 11.7-2.317 0-4.474-.68-6.29-1.847.321.038.648.057.979.057a8.223 8.223 0 0 0 5.096-1.76 4.11 4.11 0 0 1-3.834-2.856 4.11 4.11 0 0 0 1.854-.071 4.11 4.11 0 0 1-3.291-4.031v-.053a4.072 4.072 0 0 0 1.858.515 4.118 4.118 0 0 1-1.27-5.491 11.645 11.645 0 0 0 8.458 4.297c-.07-.3-.106-.615-.106-.937a4.108 4.108 0 0 1 4.102-4.113c1.181 0 2.248.5 2.995 1.3a8.23 8.23 0 0 0 2.607-.998 4.135 4.135 0 0 1-1.804 2.275c.83-.1 1.62-.32 2.356-.648a8.356 8.356 0 0 1-2.047 2.129M20 0C8.954 0 0 8.974 0 20.045c0 11.07 8.954 20.044 20 20.044s20-8.975 20-20.044C40 8.974 31.046 0 20 0"/></defs><g transform="translate(.757)" fill="none" fill-rule="evenodd"><mask id="b" fill="#fff"><use xlink:href="#a"/></mask><g fill="#050044" mask="url(#b)"><path d="M0 0h40v40.089H0z"/></g></g></svg>